<svg width="203" height="38" viewBox="0 0 203 38" fill="none" xmlns="http://www.w3.org/2000/svg">
<path d="M46.8799 13.9389H60.2721V18.2635H51.3442V22.2793H58.5791V26.6039H51.3442V33.4H46.8799V13.9389ZM69.3545 19.0358C69.5391 19.0358 69.7085 19.0462 69.8627 19.0666C70.0163 19.0872 70.1448 19.1079 70.2474 19.1285C70.3705 19.1492 70.4836 19.1698 70.5861 19.1901V23.5147C70.463 23.4737 70.3192 23.422 70.1552 23.3603C70.0115 23.319 69.8472 23.2831 69.6623 23.2523C69.4777 23.2215 69.2725 23.2059 69.0468 23.2059C68.2669 23.2059 67.6356 23.4636 67.1534 23.9782C66.6709 24.4932 66.4296 25.2137 66.4296 26.1407V33.4H62.2734V19.1901H65.3522L65.968 20.7347C66.2143 20.4259 66.5119 20.1476 66.8609 19.9008C67.148 19.6743 67.502 19.4732 67.9228 19.2985C68.3436 19.1231 68.8207 19.0358 69.3545 19.0358ZM78.7447 18.8814C79.586 18.8814 80.3661 19.0256 81.0845 19.3137C81.8029 19.6019 82.4238 20.0088 82.9471 20.5339C83.4705 21.0591 83.8758 21.682 84.1633 22.4028C84.4504 23.1237 84.5942 23.9061 84.5942 24.7505V33.4H81.5154L80.8999 32.0098C80.5507 32.298 80.1609 32.5556 79.73 32.7821C79.3602 32.988 78.9242 33.1684 78.4214 33.3225C77.9183 33.4772 77.3592 33.5544 76.7434 33.5544C75.2043 33.5544 74.024 33.1786 73.203 32.4269C72.3817 31.6753 71.9714 30.7124 71.9714 29.5383C71.9714 28.8384 72.1097 28.1948 72.3871 27.6077C72.6641 27.021 73.1311 26.5165 73.7878 26.0943C74.4447 25.6721 75.3117 25.3427 76.3894 25.1057C77.4671 24.869 78.8163 24.7505 80.438 24.7505C80.438 24.0503 80.2635 23.5147 79.9146 23.1443C79.5654 22.7733 79.124 22.5881 78.5905 22.5881C78.2008 22.5881 77.8879 22.6653 77.6517 22.82C77.4156 22.9743 77.2256 23.1338 77.0822 23.2984C76.9178 23.5049 76.8048 23.7311 76.7434 23.9782L72.5872 23.6694C72.7103 22.9693 72.9256 22.3256 73.2337 21.7389C73.5415 21.1515 73.947 20.6473 74.4498 20.2251C74.9526 19.8029 75.563 19.4732 76.2814 19.2365C77.0001 18.9998 77.8211 18.8814 78.7447 18.8814ZM77.8211 30.4653C78.6007 30.4653 79.232 30.2235 79.7142 29.7394C80.1967 29.2555 80.438 28.6221 80.438 27.8396V27.2217C79.5552 27.2217 78.8318 27.2678 78.2673 27.3609C77.7027 27.4536 77.2617 27.5823 76.9438 27.7469C76.6256 27.9117 76.41 28.1074 76.297 28.3339C76.1842 28.5604 76.1279 28.8073 76.1279 29.0754C76.1279 29.4665 76.2764 29.7959 76.574 30.064C76.8716 30.3315 77.2873 30.4653 77.8211 30.4653ZM95.3696 19.0358C96.2111 19.0358 96.9808 19.1749 97.6786 19.4526C98.3762 19.7308 98.9768 20.1324 99.4796 20.6575C99.9826 21.1826 100.372 21.8158 100.649 22.5572C100.927 23.2984 101.065 24.1329 101.065 25.0596V33.4H96.9086V25.8319C96.9086 24.9049 96.6677 24.1841 96.1855 23.6694C95.703 23.1545 95.0719 22.8969 94.2918 22.8969C93.5123 22.8969 92.881 23.1545 92.3987 23.6694C91.9162 24.1841 91.675 24.9049 91.675 25.8319V33.4H87.5188V19.1901H90.5975L91.213 20.5803C91.5417 20.2919 91.9216 20.0345 92.3525 19.8077C92.7217 19.6225 93.1631 19.4478 93.6763 19.2826C94.1892 19.118 94.7537 19.0358 95.3696 19.0358ZM110.609 18.8814C111.307 18.8814 111.943 18.9586 112.518 19.1132C113.093 19.2673 113.606 19.4786 114.057 19.7461C114.509 20.0142 114.904 20.3125 115.243 20.6422C115.581 20.9714 115.874 21.3113 116.12 21.6614C116.695 22.4851 117.116 23.4118 117.382 24.4417L113.226 24.7505C113.082 24.3798 112.898 24.0503 112.672 23.7619C112.467 23.5147 112.195 23.2831 111.856 23.0668C111.518 22.8508 111.102 22.7428 110.609 22.7428C109.747 22.7428 109.019 23.062 108.423 23.7003C107.828 24.3388 107.53 25.2035 107.53 26.2951C107.53 27.3866 107.828 28.2516 108.423 28.8899C109.019 29.5284 109.747 29.8477 110.609 29.8477C111.102 29.8477 111.518 29.7447 111.856 29.5383C112.195 29.3324 112.467 29.1062 112.672 28.8591C112.898 28.5709 113.082 28.231 113.226 27.8396L117.382 28.1487C117.116 29.1783 116.695 30.105 116.12 30.9284C115.874 31.2788 115.581 31.6187 115.243 31.9482C114.904 32.2776 114.509 32.5762 114.057 32.8437C113.606 33.1115 113.093 33.3225 112.518 33.4772C111.943 33.6316 111.307 33.7088 110.609 33.7088C109.603 33.7088 108.665 33.5182 107.792 33.1373C106.92 32.7564 106.155 32.2312 105.498 31.5619C104.842 30.8925 104.324 30.1101 103.944 29.2142C103.564 28.3187 103.374 27.3453 103.374 26.2951C103.374 25.2448 103.564 24.2718 103.944 23.3759C104.324 22.48 104.842 21.6976 105.498 21.0279C106.155 20.3589 106.92 19.8338 107.792 19.4526C108.665 19.0717 109.603 18.8814 110.609 18.8814ZM123.848 20.5803C124.114 20.2919 124.433 20.0345 124.802 19.8077C125.13 19.6225 125.546 19.4478 126.049 19.2826C126.552 19.118 127.152 19.0358 127.85 19.0358C128.609 19.0358 129.323 19.1749 129.99 19.4526C130.657 19.7308 131.226 20.1324 131.699 20.6575C132.17 21.1826 132.545 21.8158 132.822 22.5572C133.099 23.2984 133.238 24.1329 133.238 25.0596V33.4H129.082V25.8319C129.082 24.9049 128.84 24.1841 128.358 23.6694C127.876 23.1545 127.245 22.8969 126.465 22.8969C125.685 22.8969 125.054 23.1545 124.571 23.6694C124.089 24.1841 123.848 24.9049 123.848 25.8319V33.4H119.691V13.9389H123.848V20.5803ZM140.473 33.4H136.316V19.1901H140.473V33.4ZM136.163 15.329C136.163 14.7112 136.394 14.1705 136.855 13.7073C137.317 13.2438 137.856 13.0122 138.472 13.0122C139.088 13.0122 139.626 13.2438 140.088 13.7073C140.55 14.1705 140.781 14.7112 140.781 15.329C140.781 15.9466 140.55 16.487 140.088 16.9505C139.626 17.414 139.088 17.6456 138.472 17.6456C137.856 17.6456 137.317 17.414 136.855 16.9505C136.394 16.487 136.163 15.9466 136.163 15.329ZM147.246 28.7663C147.328 29.24 147.523 29.6158 147.831 29.894C148.139 30.1717 148.56 30.3109 149.093 30.3109C149.627 30.3109 150.042 30.1822 150.34 29.9246C150.638 29.6672 150.787 29.3842 150.787 29.0754C150.787 28.8279 150.607 28.6275 150.248 28.4728C149.889 28.3187 149.442 28.164 148.909 28.0093C148.375 27.8552 147.795 27.6748 147.169 27.4689C146.543 27.263 145.963 26.9901 145.43 26.6502C144.896 26.3106 144.449 25.8624 144.09 25.3067C143.731 24.7505 143.551 24.0503 143.551 23.2059C143.551 22.6294 143.675 22.0785 143.921 21.5531C144.167 21.0279 144.522 20.5698 144.983 20.1788C145.445 19.7874 146.01 19.4732 146.676 19.2365C147.344 18.9998 148.098 18.8814 148.939 18.8814C150.787 18.8814 152.192 19.2931 153.157 20.1171C154.122 20.9409 154.717 21.9705 154.943 23.2059L150.94 23.5147C150.858 23.2059 150.674 22.9229 150.386 22.6653C150.099 22.4079 149.719 22.2793 149.247 22.2793C148.775 22.2793 148.426 22.3822 148.2 22.5881C147.975 22.7939 147.862 23.0515 147.862 23.3603C147.862 23.6281 148.041 23.834 148.4 23.9782C148.759 24.1224 149.206 24.2718 149.74 24.4262C150.274 24.5805 150.853 24.761 151.479 24.9668C152.105 25.1727 152.685 25.4456 153.219 25.7852C153.753 26.1251 154.199 26.5733 154.558 27.129C154.917 27.6852 155.097 28.3851 155.097 29.2295C155.097 29.8064 154.969 30.3623 154.712 30.8979C154.455 31.4332 154.081 31.9123 153.588 32.3342C153.096 32.7564 152.495 33.0909 151.787 33.3383C151.079 33.5852 150.284 33.7088 149.401 33.7088C147.472 33.7088 146.02 33.2866 145.045 32.4422C144.07 31.5978 143.469 30.4757 143.244 29.0754L147.246 28.7663ZM170.644 29.2295C170.459 29.8064 170.183 30.3623 169.813 30.8979C169.444 31.4332 168.982 31.9123 168.427 32.3342C167.874 32.7564 167.232 33.0909 166.503 33.3383C165.775 33.5852 164.948 33.7088 164.025 33.7088C163.06 33.7088 162.152 33.5182 161.3 33.1373C160.449 32.7564 159.699 32.2312 159.053 31.5619C158.406 30.8925 157.893 30.1101 157.513 29.2142C157.134 28.3187 156.944 27.3453 156.944 26.2951C156.944 25.2448 157.134 24.2718 157.513 23.3759C157.893 22.48 158.412 21.6976 159.068 21.0279C159.725 20.3589 160.489 19.8338 161.362 19.4526C162.234 19.0717 163.173 18.8814 164.179 18.8814C165.143 18.8814 166.047 19.0564 166.888 19.4065C167.73 19.7566 168.463 20.256 169.09 20.9047C169.716 21.5531 170.208 22.3358 170.567 23.2523C170.926 24.1688 171.106 25.1832 171.106 26.2951C171.106 26.4599 171.096 26.6194 171.075 26.7738C171.055 26.9285 171.034 27.0778 171.014 27.2217C170.993 27.3866 170.973 27.541 170.952 27.6852H161.254C161.418 28.2205 161.752 28.7148 162.255 29.1678C162.758 29.6212 163.399 29.8477 164.179 29.8477C164.569 29.8477 164.902 29.8013 165.179 29.7082C165.457 29.6158 165.677 29.5078 165.842 29.3842C166.047 29.2606 166.211 29.1062 166.334 28.9207L170.644 29.2295ZM164.179 22.7428C163.399 22.7428 162.758 22.9743 162.255 23.4378C161.752 23.901 161.418 24.4417 161.254 25.0596H167.104C166.939 24.4417 166.606 23.901 166.103 23.4378C165.6 22.9743 164.959 22.7428 164.179 22.7428ZM186.346 29.0754V33.4H172.953V30.3109L180.034 22.8969C180.343 22.5674 180.619 22.2278 180.866 21.8777C181.092 21.5896 181.291 21.2598 181.466 20.8891C181.641 20.5187 181.728 20.1581 181.728 19.8077C181.728 19.1901 181.543 18.7009 181.174 18.3407C180.804 17.9801 180.27 17.8 179.573 17.8C178.793 17.8 178.187 18.0163 177.756 18.4487C177.325 18.8814 177.11 19.4888 177.11 20.2712L172.799 19.9624C172.799 19.0767 172.958 18.2584 173.277 17.5068C173.595 16.7551 174.046 16.1013 174.631 15.5451C175.216 14.9891 175.924 14.5565 176.756 14.2477C177.587 13.9389 178.526 13.7842 179.573 13.7842C180.64 13.7842 181.594 13.9284 182.436 14.2166C183.278 14.5053 183.991 14.9116 184.576 15.4368C185.161 15.9619 185.602 16.5852 185.899 17.3057C186.197 18.0265 186.346 18.8092 186.346 19.6536C186.346 20.3951 186.187 21.1004 185.869 21.7694C185.551 22.4387 185.197 23.0309 184.806 23.5459C184.355 24.1431 183.842 24.699 183.267 25.2137L179.573 29.0754H186.346ZM202.971 30.0018H200.97V33.4H196.506V30.0018H188.039V25.986L195.675 13.9389H200.97V25.6772H202.971V30.0018ZM192.657 25.6772H196.506V19.4989L192.657 25.6772Z" fill="white"/>
<path fill-rule="evenodd" clip-rule="evenodd" d="M21.1673 0.445909L38.6689 13.2042C39.4848 13.7991 39.8119 14.8086 39.5 15.7706L32.8146 36.4145C32.5033 37.3765 31.6471 38.0007 30.6388 38.0007H9.00577C7.9978 38.0007 7.14163 37.3765 6.83029 36.4145L0.144623 15.7706C-0.167012 14.8086 0.16013 13.7991 0.976045 13.2042L18.4777 0.445909C19.2936 -0.148636 20.3519 -0.148636 21.1673 0.445909ZM19.8226 7.69176L7.42851 16.7266L12.1627 31.3455H27.4819L32.2164 16.7266L19.8226 7.69176Z" fill="white"/>
</svg>
