<svg width="203" height="38" viewBox="0 0 203 38" fill="none" xmlns="http://www.w3.org/2000/svg">
<path d="M53.4821 28.0584V26.3986C49.3459 26.1909 47.5879 24.012 47.5879 20.2772C47.5879 16.5421 49.5528 14.6744 53.4821 14.467V13.0146H56.2737V14.467C60.2033 14.6744 62.1679 16.6456 62.1679 20.2772C62.1679 24.012 60.5134 26.0871 56.2737 26.3986V28.0584H53.4821V28.0584ZM53.4821 16.8533C51.207 16.9571 50.3801 18.0983 50.3801 20.4846C50.3801 22.767 51.207 24.012 53.4821 24.1159V16.8533ZM56.1705 24.012C58.4453 23.9082 59.2725 22.6635 59.2725 20.381C59.2725 17.9948 58.4453 16.8533 56.1705 16.7494V24.012ZM70.1296 13.7405C72.8183 13.7405 74.783 15.6082 74.783 18.2018C74.783 20.7958 72.8183 22.6635 70.1296 22.6635H67.4415V28.0584H64.6493V13.7405H70.1296ZM70.0264 20.0696C71.267 20.0696 72.0946 19.3431 72.0946 18.098C72.0946 16.9568 71.267 16.1268 70.0264 16.1268H67.4415V20.0696H70.0264ZM84.296 27.9545L83.4691 25.4644H78.4021L77.5752 27.9545H74.6798L79.8499 13.6367H82.0215L87.1917 27.9545H84.296ZM80.9873 17.8907L79.2293 23.0782H82.7453L80.9873 17.8907V17.8907ZM96.4981 27.9545V21.937H91.6381V27.9545H88.9496V13.7405H91.7409V19.5507H96.6009V13.7405H99.2902V28.0584H96.4981V27.9545V27.9545ZM109.527 27.9545V22.5593C108.803 22.6632 107.459 22.9747 105.907 22.9747C104.046 22.9747 102.288 21.8334 102.288 19.5504V13.7405H105.081V18.8245C105.081 20.0696 105.907 20.4843 106.839 20.4843C107.665 20.4843 108.906 20.2769 109.527 20.1731V13.6367H112.319V27.9545H109.527V27.9545ZM123.693 27.9545L122.866 25.4644H117.799L116.971 27.9545H114.076L119.246 13.6367H121.418L126.588 27.9545H123.693V27.9545ZM120.384 17.8907L118.626 23.0782H122.142L120.384 17.8907V17.8907ZM136.309 27.9545V18.8242L130.724 27.9545H128.243V13.7405H131.035V22.8705L136.515 13.7405H138.997V28.0581H136.309V27.9545V27.9545ZM133.723 12.9105C132.172 12.9105 130.518 12.1843 130.518 10.0054H132.482C132.586 10.8354 132.999 11.2504 133.723 11.2504C134.447 11.2504 134.964 10.9392 134.964 10.0054H136.928C136.928 12.2878 135.274 12.9105 133.723 12.9105ZM141.479 23.597H144.271C144.581 24.7382 145.305 25.6718 146.753 25.6718C148.2 25.6718 149.027 24.8418 149.027 23.7006C149.027 22.4555 148.303 21.7293 146.855 21.7293H144.995V19.4469H146.855C148.097 19.4469 148.82 18.8242 148.82 17.683C148.82 16.5418 147.993 15.9191 146.753 15.9191C145.407 15.9191 144.581 16.853 144.373 17.9942H141.582C142.099 15.0894 144.167 13.5329 146.753 13.5329C149.544 13.5329 151.612 15.0894 151.612 17.4756C151.612 18.8242 150.889 19.9654 149.751 20.5881C150.991 21.1069 151.819 22.2479 151.819 23.8044C151.819 26.398 149.647 28.0581 146.753 28.0581C143.96 28.0581 141.892 26.6057 141.479 23.597V23.597ZM162.573 27.9545V18.8245L157.092 27.9545H154.611V13.7405H157.403V22.8708L162.883 13.7405H165.364V28.0584H162.573V27.9545V27.9545ZM176.222 27.9545V21.937H171.362V27.9545H168.57V13.7405H171.362V19.5507H176.222V13.7405H179.013V28.0584H176.222V27.9545ZM185.115 16.2306V28.0584H182.323V13.7405H191.319V16.2306H185.115ZM200.004 27.9545L199.177 25.4644H194.111L193.284 27.9545H190.388L195.558 13.6367H197.73L202.9 27.9545H200.004V27.9545ZM196.696 17.8907L194.938 23.0782H198.454L196.696 17.8907ZM52.0322 6.65684V8.44855H51.2855V7.40608H47.5882V2.15332H48.3764V6.65684H50.6607V2.15332H51.4519V6.65684H52.0322V6.65684ZM56.3509 6.32321C56.2886 6.47761 56.2111 6.62333 56.1153 6.75827C56.0211 6.89442 55.9075 7.01411 55.7748 7.11704C55.6415 7.21967 55.4894 7.30046 55.3146 7.3588C55.1402 7.41715 54.9448 7.44618 54.7274 7.44618C54.4793 7.44618 54.2467 7.4004 54.029 7.30584C53.8128 7.21279 53.6232 7.08053 53.4612 6.91088C53.299 6.74182 53.1717 6.54014 53.0801 6.30646C52.9874 6.07307 52.9417 5.81305 52.9417 5.52789C52.9417 5.24603 52.9874 4.9887 53.0801 4.75531C53.1717 4.52192 53.2963 4.32025 53.4529 4.1506C53.6109 3.98094 53.7949 3.84779 54.0096 3.75324C54.2232 3.65868 54.4489 3.61141 54.6875 3.61141C54.9255 3.61141 55.1512 3.65868 55.3647 3.75324C55.5794 3.84779 55.7634 3.98094 55.9215 4.1506C56.0781 4.32025 56.2027 4.52192 56.2943 4.75531C56.387 4.9887 56.4326 5.24603 56.4326 5.52789C56.4326 5.57278 56.4299 5.61437 56.4243 5.65745C56.4189 5.69905 56.4133 5.73525 56.4076 5.76457C56.4022 5.80347 56.3968 5.83549 56.3912 5.86302H53.7299C53.7395 5.98001 53.7744 6.09102 53.8313 6.19664C53.8877 6.30227 53.9583 6.39532 54.0445 6.47611C54.1289 6.55511 54.2315 6.61944 54.3508 6.66671C54.4698 6.71399 54.5956 6.73883 54.7274 6.73883C54.9544 6.73883 55.136 6.68886 55.269 6.59161C55.4032 6.49407 55.5004 6.404 55.5601 6.32321H56.3509V6.32321ZM54.6875 4.31876C54.4379 4.31876 54.2273 4.40373 54.0556 4.57339C53.8835 4.74275 53.7755 4.96507 53.7299 5.23915H55.7262C55.6832 4.96806 55.5723 4.74694 55.3951 4.57578C55.2177 4.40523 54.9821 4.31876 54.6875 4.31876V4.31876ZM60.9133 3.6515V7.40608H60.1669V5.86302H58.377V7.40608H57.6303V3.6515H58.377V5.15417H60.1669V3.6515H60.9133V3.6515ZM61.9463 3.6515H65.0188V4.36035H63.8579V7.40608H63.1073V4.36035H61.9463V3.6515V3.6515ZM67.8387 3.61141C68.0881 3.61141 68.3207 3.65868 68.5369 3.75324C68.7543 3.84779 68.9442 3.98094 69.1076 4.1506C69.2711 4.32025 69.3987 4.52192 69.4914 4.75531C69.5827 4.9887 69.6283 5.24603 69.6283 5.52789C69.6283 5.81185 69.5827 6.07037 69.4914 6.30526C69.3987 6.53865 69.2711 6.74182 69.1076 6.91088C68.9442 7.08053 68.7543 7.21279 68.5369 7.30584C68.3207 7.4004 68.0881 7.44618 67.8387 7.44618C67.6613 7.44618 67.5077 7.42703 67.3801 7.38513C67.2539 7.34474 67.1463 7.29597 67.0601 7.23942C66.9605 7.17658 66.8731 7.10716 66.7998 7.03056V8.74179H66.053V3.6515H66.5934L66.7595 4.02971C66.8329 3.95192 66.9173 3.8813 67.0157 3.81846C67.1045 3.76969 67.2167 3.72242 67.3524 3.67813C67.4869 3.63355 67.6506 3.61141 67.8387 3.61141V3.61141ZM67.7985 6.73883C67.9425 6.73883 68.0785 6.7095 68.2085 6.65115C68.3389 6.59281 68.454 6.50783 68.5536 6.39981C68.6532 6.2912 68.7322 6.16343 68.7906 6.01741C68.8485 5.8699 68.8777 5.70742 68.8777 5.52789C68.8777 5.34896 68.8485 5.18619 68.7906 5.04017C68.7322 4.89295 68.6532 4.76638 68.5536 4.65657C68.454 4.54826 68.3389 4.46477 68.2085 4.40643C68.0785 4.34808 67.9425 4.31876 67.7985 4.31876C67.6556 4.31876 67.5173 4.34808 67.3872 4.40643C67.2554 4.46477 67.1406 4.54826 67.0422 4.65657C66.9423 4.76638 66.8651 4.89415 66.8066 5.04167C66.7488 5.19038 66.7195 5.35165 66.7195 5.52789C66.7195 5.70742 66.7488 5.8699 66.8066 6.01741C66.8651 6.16343 66.9423 6.2912 67.0422 6.39981C67.1406 6.50783 67.2554 6.59281 67.3872 6.65115C67.5173 6.7095 67.6556 6.73883 67.7985 6.73883ZM74.4376 3.61141C74.6869 3.61141 74.9196 3.65868 75.1358 3.75324C75.3532 3.84779 75.5431 3.98094 75.7065 4.1506C75.87 4.32025 75.9976 4.52192 76.0903 4.75531C76.1816 4.9887 76.2272 5.24603 76.2272 5.52789C76.2272 5.81185 76.1816 6.07037 76.0903 6.30526C75.9976 6.53865 75.87 6.74182 75.7065 6.91088C75.5431 7.08053 75.3532 7.21279 75.1358 7.30584C74.9196 7.4004 74.6869 7.44618 74.4376 7.44618C74.2602 7.44618 74.1066 7.42703 73.979 7.38513C73.8528 7.34474 73.7452 7.29597 73.6593 7.23942C73.5594 7.17658 73.472 7.10716 73.3987 7.03056V8.74179H72.6519V3.6515H73.1923L73.3584 4.02971C73.4318 3.95192 73.5165 3.8813 73.6146 3.81846C73.7034 3.76969 73.8156 3.72242 73.9512 3.67813C74.086 3.63355 74.2495 3.61141 74.4376 3.61141V3.61141ZM74.3974 6.73883C74.5414 6.73883 74.6774 6.7095 74.8074 6.65115C74.9377 6.59281 75.0529 6.50783 75.1525 6.39981C75.2521 6.2912 75.3311 6.16343 75.3895 6.01741C75.4474 5.8699 75.4766 5.70742 75.4766 5.52789C75.4766 5.34896 75.4474 5.18619 75.3895 5.04017C75.3311 4.89295 75.2521 4.76638 75.1525 4.65657C75.0529 4.54826 74.9377 4.46477 74.8074 4.40643C74.6774 4.34808 74.5414 4.31876 74.3974 4.31876C74.2545 4.31876 74.1162 4.34808 73.9861 4.40643C73.8543 4.46477 73.7395 4.54826 73.6411 4.65657C73.5412 4.76638 73.464 4.89415 73.4055 5.04167C73.3477 5.19038 73.3184 5.35165 73.3184 5.52789C73.3184 5.70742 73.3477 5.8699 73.4055 6.01741C73.464 6.16343 73.5412 6.2912 73.6411 6.39981C73.7395 6.50783 73.8543 6.59281 73.9861 6.65115C74.1162 6.7095 74.2545 6.73883 74.3974 6.73883ZM78.8783 3.61141C79.0946 3.61141 79.2926 3.64492 79.4727 3.71434C79.6528 3.78376 79.8067 3.87831 79.934 3.99799C80.0614 4.11738 80.1598 4.25772 80.2305 4.41899C80.3011 4.57997 80.3357 4.75681 80.3357 4.94592V7.40608H79.7954L79.6293 7.03056C79.5559 7.10985 79.47 7.17927 79.3701 7.23942C79.2803 7.29328 79.1682 7.34205 79.0322 7.38394C78.8977 7.42553 78.7358 7.44618 78.5461 7.44618C78.1289 7.44618 77.8104 7.34324 77.5901 7.13499C77.3697 6.92793 77.259 6.65684 77.259 6.32321C77.259 6.13261 77.2948 5.96026 77.367 5.80766C77.4389 5.65446 77.5623 5.524 77.7356 5.41688C77.91 5.31006 78.1471 5.22509 78.4462 5.16404C78.7453 5.10271 79.125 5.07248 79.5848 5.07248V4.94592C79.5848 4.75681 79.5252 4.60361 79.4062 4.48991C79.2869 4.37591 79.1113 4.31876 78.8783 4.31876C78.629 4.31876 78.4489 4.36334 78.3356 4.4537C78.2217 4.54257 78.1537 4.65238 78.1316 4.77895H77.3852C77.4073 4.44533 77.5459 4.16735 77.8033 3.94503C78.0597 3.72242 78.4185 3.61141 78.8783 3.61141V3.61141ZM78.5903 6.77922C78.9073 6.77922 79.1512 6.69694 79.3245 6.53446C79.4977 6.37169 79.5848 6.17301 79.5848 5.93962V5.73675C79.2523 5.73675 78.9836 5.75201 78.7787 5.78253C78.5748 5.81424 78.4143 5.85613 78.298 5.9088C78.1817 5.96176 78.1039 6.02729 78.0651 6.10478C78.0266 6.18288 78.0055 6.26876 78.0055 6.36331C78.0055 6.46923 78.0553 6.56498 78.1567 6.65115C78.2566 6.73613 78.4006 6.77922 78.5903 6.77922V6.77922ZM83.7291 5.4878C83.8248 5.53657 83.9065 5.6003 83.9772 5.6796C84.0395 5.74782 84.0977 5.8313 84.1535 5.93004C84.2086 6.02848 84.2364 6.14667 84.2364 6.28162C84.2364 6.61645 84.1171 6.89292 83.8773 7.11554C83.6378 7.33666 83.3012 7.44618 82.8649 7.44618C82.4047 7.44618 82.06 7.33786 81.8298 7.12122C81.6002 6.90429 81.4725 6.5958 81.449 6.19664H82.1999C82.2207 6.36211 82.2843 6.49407 82.3898 6.59161C82.4963 6.68886 82.6543 6.73883 82.8649 6.73883C83.0975 6.73883 83.2666 6.69454 83.3706 6.60537C83.4744 6.5177 83.5269 6.40909 83.5269 6.28162C83.5269 6.15505 83.4744 6.04524 83.3706 5.95607C83.2666 5.86721 83.0975 5.82143 82.8649 5.82143H82.5324V5.15417H82.8649C83.0769 5.15417 83.2251 5.11108 83.3137 5.0264C83.4008 4.94023 83.4452 4.84418 83.4452 4.73886C83.4452 4.63293 83.4008 4.53569 83.311 4.44951C83.2224 4.36184 83.0739 4.31876 82.8649 4.31876C82.6752 4.31876 82.5297 4.36334 82.4271 4.4537C82.3248 4.54257 82.2622 4.65238 82.2401 4.77895H81.4934C81.5158 4.42318 81.6386 4.13952 81.8662 3.92828C82.0946 3.71673 82.4271 3.61141 82.8649 3.61141C83.0656 3.61141 83.2445 3.64073 83.4008 3.69878C83.5576 3.75742 83.6918 3.83791 83.8025 3.94084C83.9137 4.04378 83.9993 4.16316 84.0601 4.29931C84.1213 4.43425 84.152 4.58147 84.152 4.73886C84.152 4.86632 84.1299 4.97644 84.0852 5.07099C84.0395 5.16404 83.9909 5.24154 83.9373 5.30438C83.8773 5.37799 83.8081 5.43903 83.7291 5.4878V5.4878ZM87.8859 5.4477C87.9855 5.49618 88.0756 5.5629 88.1534 5.64638C88.2211 5.71969 88.2837 5.81185 88.3404 5.92136C88.3971 6.03118 88.4263 6.16493 88.4263 6.32321C88.4263 6.47761 88.3986 6.62213 88.3416 6.75409C88.2861 6.88754 88.2116 7.00154 88.1146 7.09609C88.0189 7.19214 87.9014 7.26694 87.7628 7.3226C87.6226 7.37825 87.4705 7.40608 87.3056 7.40608H85.434V3.6515H87.1794C87.3444 3.6515 87.4967 3.67813 87.6366 3.73109C87.7753 3.78376 87.8928 3.85766 87.99 3.95341C88.0854 4.04796 88.1618 4.15897 88.2169 4.28704C88.2724 4.4148 88.3001 4.54975 88.3001 4.69397C88.3001 4.83191 88.2781 4.94711 88.2351 5.04017C88.1919 5.13203 88.1436 5.20982 88.0926 5.27236C88.0326 5.34028 87.9649 5.39893 87.8859 5.4477V5.4477ZM86.1807 4.27866V5.19427H87.0951C87.2209 5.19427 87.3306 5.14998 87.4192 5.06261C87.5078 4.97374 87.5534 4.86632 87.5534 4.73886C87.5534 4.61079 87.509 4.50248 87.4204 4.41331C87.3333 4.32295 87.2236 4.27866 87.0951 4.27866H86.1807ZM87.2194 6.77922C87.347 6.77922 87.455 6.73194 87.5454 6.63889C87.6339 6.54433 87.6781 6.42614 87.6781 6.28162C87.6781 6.15505 87.6339 6.04524 87.5454 5.95607C87.455 5.86721 87.347 5.82143 87.2194 5.82143H86.1807V6.77922H87.2194ZM92.9073 3.6515V7.40608H92.1605V4.77895L90.3709 7.40608H89.6239V3.6515H90.3709V6.28162L92.1605 3.6515H92.9073ZM93.94 3.6515H97.0128V4.36035H95.8518V7.40608H95.1009V4.36035H93.94V3.6515V3.6515ZM101.33 3.6515V7.40608H100.584V4.77895L98.7937 7.40608H98.0467V3.6515H98.7937V6.28162L100.584 3.6515H101.33ZM105.602 3.6515V7.40608H104.855V6.15625H104.108L103.316 7.40608H102.485L103.358 6.02968C103.214 5.97582 103.089 5.89802 102.984 5.79779C102.889 5.70742 102.804 5.59222 102.726 5.45189C102.648 5.31006 102.611 5.12784 102.611 4.90552C102.611 4.72599 102.641 4.56082 102.705 4.40643C102.769 4.25353 102.857 4.12157 102.971 4.01176C103.085 3.90195 103.221 3.81428 103.38 3.74905C103.538 3.68382 103.711 3.6515 103.901 3.6515H105.602V3.6515ZM103.901 4.36035C103.758 4.36035 103.63 4.4148 103.521 4.52342C103.412 4.63144 103.358 4.7595 103.358 4.90552C103.358 5.05004 103.412 5.17631 103.52 5.28493C103.627 5.39325 103.755 5.4477 103.901 5.4477H104.855V4.36035H103.901ZM48.3722 32.1783V33.6732H50.44V34.4188H48.3722V36.6597H47.5882V31.4326H50.8966V32.1783H48.3722V32.1783ZM54.2745 32.8835C54.3171 32.8835 54.3532 32.8847 54.3806 32.8904C54.4095 32.8961 54.4358 32.9018 54.4591 32.9069C54.4811 32.9126 54.5032 32.9182 54.5238 32.9239V33.6732C54.5032 33.6678 54.4769 33.6624 54.4483 33.6567C54.4206 33.6513 54.3931 33.6456 54.3627 33.6388C54.3335 33.6319 54.3034 33.6292 54.2745 33.6292C54.1477 33.6292 54.029 33.654 53.919 33.7037C53.8086 33.7537 53.712 33.8201 53.6294 33.9042C53.548 33.9873 53.483 34.0855 53.4362 34.1962C53.3894 34.3069 53.3646 34.423 53.3646 34.5448V36.6597H52.6217V32.9239H53.1594L53.3246 33.3C53.3923 33.2225 53.4723 33.1519 53.5632 33.0897C53.6419 33.0412 53.7395 32.9942 53.8581 32.9497C53.9765 32.9057 54.1146 32.8835 54.2745 32.8835V32.8835ZM57.6511 32.8835C57.8662 32.8835 58.0633 32.9167 58.2425 32.9859C58.4217 33.055 58.5747 33.1489 58.7014 33.268C58.8282 33.3871 58.9263 33.5266 58.9964 33.6872C59.0668 33.8476 59.1014 34.0233 59.1014 34.2115V36.6597H58.5637L58.3982 36.2859C58.3251 36.3649 58.2398 36.434 58.1405 36.4936C58.0507 36.5475 57.9392 36.5959 57.8041 36.6375C57.6705 36.6791 57.5092 36.6998 57.3204 36.6998C56.9053 36.6998 56.588 36.5971 56.3691 36.3898C56.1499 36.1839 56.0396 35.914 56.0396 35.5822C56.0396 35.3928 56.0754 35.221 56.1469 35.069C56.2188 34.9167 56.3414 34.7866 56.514 34.6803C56.6873 34.5738 56.9232 34.4894 57.2211 34.4284C57.5187 34.3677 57.8963 34.3371 58.354 34.3371V34.2115C58.354 34.0233 58.295 33.8713 58.1763 33.7578C58.0579 33.6441 57.8826 33.5876 57.6511 33.5876C57.403 33.5876 57.2238 33.6319 57.1105 33.7216C56.9975 33.8102 56.9301 33.9197 56.908 34.0454H56.1648C56.1869 33.7133 56.325 33.4368 56.5814 33.2154C56.8364 32.9942 57.1934 32.8835 57.6511 32.8835V32.8835ZM57.3643 36.0358C57.6798 36.0358 57.9225 35.9541 58.0949 35.7922C58.2673 35.6306 58.354 35.4326 58.354 35.2004V34.9984C58.0233 34.9984 57.7558 35.0137 57.5518 35.0442C57.349 35.0759 57.1892 35.1175 57.0735 35.1699C56.9578 35.2225 56.8806 35.2874 56.8421 35.3649C56.803 35.4424 56.7824 35.528 56.7824 35.622C56.7824 35.7273 56.8322 35.8227 56.9327 35.9083C57.032 35.993 57.1755 36.0358 57.3643 36.0358V36.0358ZM62.8899 32.8835C63.0953 32.8835 63.2883 32.9239 63.4705 33.0038C63.6524 33.0855 63.8093 33.1962 63.9447 33.3371C64.0798 33.4769 64.1856 33.6471 64.2643 33.8449C64.3416 34.0442 64.3801 34.2638 64.3801 34.5032V36.6597H63.6372V34.5032C63.6372 34.3829 63.6139 34.2665 63.5671 34.1546C63.52 34.0442 63.4565 33.9473 63.3754 33.8641C63.294 33.78 63.2015 33.7133 63.0968 33.6624C62.9922 33.6124 62.8815 33.5876 62.7658 33.5876C62.6394 33.5876 62.5207 33.6124 62.4103 33.6624C62.3 33.7133 62.2034 33.78 62.1208 33.8641C62.0394 33.9473 61.9747 34.0442 61.9278 34.1534C61.881 34.2623 61.8563 34.3799 61.8563 34.5032V36.6597H61.1131V32.9239H61.6508L61.816 33.3C61.8891 33.2225 61.9735 33.1519 62.0713 33.0897C62.1595 33.0412 62.2711 32.9942 62.4062 32.9497C62.5401 32.9057 62.7026 32.8835 62.8899 32.8835ZM69.6206 35.2901C69.5776 35.4894 69.5087 35.6761 69.4151 35.8476C69.32 36.0193 69.2016 36.1683 69.0567 36.2943C68.9132 36.4218 68.7492 36.5214 68.5646 36.5932C68.38 36.6638 68.1799 36.6998 67.9649 36.6998C67.7168 36.6998 67.4854 36.654 67.2703 36.56C67.0553 36.4673 66.8666 36.3359 66.7022 36.1671C66.5394 35.9987 66.4142 35.7979 66.3229 35.5657C66.2335 35.3329 66.1881 35.0744 66.1881 34.7907C66.1881 34.5101 66.2335 34.2543 66.3229 34.0218C66.4142 33.7896 66.5394 33.5891 66.7022 33.4203C66.8666 33.2516 67.0553 33.1184 67.2703 33.0245C67.4854 32.9305 67.7168 32.8835 67.9649 32.8835C68.1799 32.8835 68.38 32.9182 68.5646 32.9901C68.7492 33.0622 68.9132 33.1618 69.0567 33.2902C69.2016 33.4188 69.32 33.5684 69.4124 33.7396C69.5061 33.9113 69.5753 34.0951 69.6206 34.2928H68.8336C68.7713 34.0828 68.6696 33.9125 68.5261 33.7827C68.3842 33.6525 68.1966 33.5876 67.9649 33.5876C67.8328 33.5876 67.7043 33.6166 67.5778 33.6747C67.4508 33.733 67.3407 33.8159 67.2468 33.9239C67.1517 34.0328 67.0759 34.1603 67.0178 34.3069C66.9602 34.4547 66.9313 34.6154 66.9313 34.7907C66.9313 34.9694 66.9602 35.1313 67.0178 35.2779C67.0759 35.423 67.1517 35.5502 67.2468 35.6582C67.3407 35.7659 67.4508 35.8506 67.5778 35.9083C67.7043 35.9667 67.8328 35.9957 67.9649 35.9957C68.1966 35.9957 68.3842 35.9305 68.5288 35.8006C68.6723 35.6704 68.7742 35.5005 68.8336 35.2901H69.6206V35.2901ZM73.2454 32.8835C73.4493 32.8835 73.6423 32.9239 73.8245 33.0038C74.0064 33.0855 74.1648 33.1962 74.3011 33.3371C74.4364 33.4769 74.5438 33.6471 74.6195 33.8449C74.6971 34.0442 74.7356 34.2638 74.7356 34.5032V36.6597H73.9924V34.5032C73.9924 34.3829 73.9688 34.2665 73.9205 34.1546C73.8737 34.0442 73.8105 33.9473 73.7318 33.8641C73.6521 33.78 73.5597 33.7133 73.4547 33.6624C73.3503 33.6124 73.2397 33.5876 73.124 33.5876C72.997 33.5876 72.8786 33.6124 72.7682 33.6624C72.6582 33.7133 72.5616 33.78 72.4775 33.8641C72.3949 33.9473 72.3287 34.0442 72.2818 34.1534C72.2347 34.2623 72.2112 34.3799 72.2112 34.5032V36.6597H71.4683V31.4326H72.2112V33.3C72.2884 33.2225 72.3782 33.1519 72.4775 33.0897C72.5672 33.0412 72.6761 32.9942 72.8043 32.9497C72.9337 32.9057 73.0814 32.8835 73.2454 32.8835ZM77.4905 36.6597H76.7473V32.9239H77.4905V36.6597ZM77.1198 32.344C76.9927 32.344 76.8854 32.3001 76.7971 32.2127C76.7073 32.1241 76.6635 32.0164 76.6635 31.8862C76.6635 31.7588 76.7073 31.6511 76.7971 31.564C76.8854 31.4754 76.9927 31.4326 77.1198 31.4326C77.2462 31.4326 77.3542 31.4754 77.4422 31.564C77.5316 31.6511 77.576 31.7588 77.576 31.8862C77.576 32.0137 77.5316 32.1214 77.4422 32.21C77.3542 32.3001 77.2462 32.344 77.1198 32.344V32.344ZM80.0858 35.4562C80.1076 35.6208 80.1711 35.7521 80.2758 35.8491C80.3805 35.946 80.5379 35.9957 80.7473 35.9957C80.979 35.9957 81.1484 35.9514 81.2533 35.8628C81.358 35.7758 81.4105 35.6678 81.4105 35.5406C81.4105 35.4299 81.3607 35.3455 81.2614 35.2874C81.1609 35.2294 81.0383 35.1809 80.8907 35.142C80.7446 35.1034 80.5862 35.0621 80.415 35.0205C80.2442 34.979 80.0858 34.9197 79.9409 34.8422C79.7948 34.7644 79.6719 34.6624 79.5726 34.5322C79.4736 34.4024 79.4241 34.2267 79.4241 34.0053C79.4241 33.8518 79.4542 33.7067 79.5135 33.5693C79.5741 33.4326 79.6597 33.3135 79.77 33.2115C79.8815 33.1091 80.0154 33.0287 80.1723 32.9709C80.3298 32.9126 80.5087 32.8835 80.7073 32.8835C81.1442 32.8835 81.4737 32.9889 81.6986 33.1989C81.9246 33.409 82.0487 33.6911 82.0719 34.0454H81.3249C81.3043 33.9197 81.2423 33.8102 81.14 33.7216C81.0368 33.6319 80.8934 33.5876 80.7073 33.5876C80.5185 33.5876 80.3751 33.6304 80.2758 33.7175C80.1753 33.8033 80.1255 33.9003 80.1255 34.0053C80.1255 34.116 80.1753 34.2004 80.2758 34.2584C80.3751 34.3165 80.498 34.365 80.6453 34.4024C80.7914 34.4398 80.9497 34.4796 81.1194 34.5223C81.2891 34.5642 81.4475 34.6235 81.5936 34.6995C81.7412 34.7773 81.8641 34.8808 81.9634 35.0122C82.0639 35.1435 82.1134 35.3192 82.1134 35.5406C82.1134 35.8739 81.9947 36.1492 81.7576 36.3706C81.5205 36.5905 81.1844 36.6998 80.7473 36.6998C80.2895 36.6998 79.9466 36.592 79.7175 36.376C79.4888 36.1603 79.3647 35.8533 79.3427 35.4562H80.0858V35.4562ZM87.1869 35.5822C87.1249 35.7357 87.0479 35.8808 86.9528 36.0151C86.8589 36.1507 86.7458 36.2695 86.6134 36.3718C86.4813 36.4744 86.3295 36.5543 86.1557 36.6127C85.9824 36.6704 85.788 36.6998 85.5715 36.6998C85.3246 36.6998 85.0931 36.654 84.8766 36.56C84.6613 36.4673 84.4726 36.3359 84.3115 36.1671C84.1502 35.9987 84.0231 35.7979 83.9322 35.5657C83.84 35.3329 83.7944 35.0744 83.7944 34.7907C83.7944 34.5101 83.84 34.2543 83.9322 34.0218C84.0231 33.7896 84.1475 33.5891 84.3032 33.4203C84.4603 33.2516 84.6437 33.1184 84.8573 33.0245C85.0696 32.9305 85.2941 32.8835 85.5315 32.8835C85.7686 32.8835 85.9932 32.9305 86.2055 33.0245C86.419 33.1184 86.6024 33.2516 86.7596 33.4203C86.9152 33.5891 87.0396 33.7896 87.1305 34.0218C87.2227 34.2543 87.2683 34.5101 87.2683 34.7907C87.2683 34.835 87.2653 34.8769 87.2603 34.9197C87.2546 34.961 87.2489 34.9972 87.2433 35.0259C87.2382 35.0648 87.2325 35.0965 87.2269 35.1241H84.579C84.5883 35.2405 84.6229 35.3512 84.6792 35.4562C84.7359 35.5615 84.8063 35.654 84.8915 35.7345C84.9759 35.8129 85.0779 35.8769 85.1966 35.9239C85.315 35.9709 85.4403 35.9957 85.5715 35.9957C85.7972 35.9957 85.9782 35.946 86.1104 35.8491C86.244 35.7521 86.3406 35.6624 86.3999 35.5822H87.1869V35.5822ZM85.5315 33.5876C85.2831 33.5876 85.0738 33.672 84.9029 33.8407C84.7317 34.0095 84.6243 34.2309 84.579 34.5032H86.5654C86.5225 34.2336 86.4121 34.0137 86.2359 33.8434C86.0594 33.6732 85.825 33.5876 85.5315 33.5876V33.5876ZM92.6287 35.914C92.8437 35.914 93.0534 35.867 93.2559 35.7716C93.4598 35.6776 93.6406 35.5475 93.7974 35.3814C93.9549 35.2153 94.0828 35.0179 94.1794 34.7907C94.2758 34.5642 94.3241 34.3165 94.3241 34.0454C94.3241 33.7758 94.2758 33.5266 94.1794 33.3C94.0828 33.0729 93.9549 32.8767 93.7974 32.7109C93.6406 32.5445 93.4598 32.4147 93.2559 32.3192C93.0534 32.2253 92.8437 32.1783 92.6287 32.1783H91.8414V35.914H92.6287V35.914ZM91.0571 36.6597V31.4326H92.6287C92.9594 31.4326 93.2749 31.4988 93.5758 31.6346C93.8762 31.7701 94.1395 31.9569 94.3655 32.1932C94.5916 32.4311 94.7708 32.7094 94.9059 33.0245C95.041 33.3413 95.1084 33.6818 95.1084 34.0454C95.1084 34.4104 95.041 34.751 94.9059 35.0678C94.7708 35.3829 94.5916 35.6597 94.3655 35.8976C94.1395 36.1354 93.8762 36.3221 93.5758 36.4577C93.2749 36.592 92.9594 36.6597 92.6287 36.6597H91.0571ZM100.182 35.5822C100.12 35.7357 100.043 35.8808 99.9478 36.0151C99.8539 36.1507 99.7411 36.2695 99.6087 36.3718C99.4763 36.4744 99.3248 36.5543 99.151 36.6127C98.9774 36.6704 98.783 36.6998 98.5668 36.6998C98.3198 36.6998 98.0884 36.654 97.8719 36.56C97.6566 36.4673 97.4678 36.3359 97.3068 36.1671C97.1452 35.9987 97.0184 35.7979 96.9275 35.5657C96.835 35.3329 96.7894 35.0744 96.7894 34.7907C96.7894 34.5101 96.835 34.2543 96.9275 34.0218C97.0184 33.7896 97.1425 33.5891 97.2985 33.4203C97.4553 33.2516 97.639 33.1184 97.8525 33.0245C98.0649 32.9305 98.2894 32.8835 98.5265 32.8835C98.7636 32.8835 98.9884 32.9305 99.2008 33.0245C99.4143 33.1184 99.5977 33.2516 99.7546 33.4203C99.9105 33.5891 100.035 33.7896 100.126 34.0218C100.218 34.2543 100.264 34.5101 100.264 34.7907C100.264 34.835 100.261 34.8769 100.255 34.9197C100.25 34.961 100.244 34.9972 100.239 35.0259C100.233 35.0648 100.228 35.0965 100.222 35.1241H97.574C97.5836 35.2405 97.6179 35.3512 97.6745 35.4562C97.7312 35.5615 97.8016 35.654 97.8868 35.7345C97.9712 35.8129 98.0729 35.8769 98.1916 35.9239C98.31 35.9709 98.4356 35.9957 98.5668 35.9957C98.7925 35.9957 98.9732 35.946 99.1056 35.8491C99.2392 35.7521 99.3359 35.6624 99.3952 35.5822H100.182V35.5822ZM98.5265 33.5876C98.2784 33.5876 98.0688 33.672 97.8982 33.8407C97.727 34.0095 97.6193 34.2309 97.574 34.5032H99.5607C99.5175 34.2336 99.4074 34.0137 99.2312 33.8434C99.0546 33.6732 98.8202 33.5876 98.5265 33.5876V33.5876ZM105.296 32.9239L103.806 36.6597H103.144L101.654 32.9239H102.441L103.475 35.622L104.509 32.9239H105.296ZM110.164 35.5822C110.102 35.7357 110.025 35.8808 109.93 36.0151C109.836 36.1507 109.723 36.2695 109.591 36.3718C109.458 36.4744 109.307 36.5543 109.133 36.6127C108.96 36.6704 108.765 36.6998 108.549 36.6998C108.302 36.6998 108.07 36.654 107.854 36.56C107.638 36.4673 107.45 36.3359 107.289 36.1671C107.127 35.9987 107 35.7979 106.909 35.5657C106.817 35.3329 106.772 35.0744 106.772 34.7907C106.772 34.5101 106.817 34.2543 106.909 34.0218C107 33.7896 107.125 33.5891 107.281 33.4203C107.437 33.2516 107.621 33.1184 107.834 33.0245C108.047 32.9305 108.272 32.8835 108.509 32.8835C108.746 32.8835 108.97 32.9305 109.183 33.0245C109.396 33.1184 109.58 33.2516 109.737 33.4203C109.893 33.5891 110.017 33.7896 110.108 34.0218C110.2 34.2543 110.246 34.5101 110.246 34.7907C110.246 34.835 110.243 34.8769 110.237 34.9197C110.232 34.961 110.226 34.9972 110.221 35.0259C110.215 35.0648 110.21 35.0965 110.204 35.1241H107.556C107.566 35.2405 107.6 35.3512 107.657 35.4562C107.713 35.5615 107.783 35.654 107.869 35.7345C107.953 35.8129 108.055 35.8769 108.174 35.9239C108.292 35.9709 108.418 35.9957 108.549 35.9957C108.775 35.9957 108.955 35.946 109.087 35.8491C109.221 35.7521 109.318 35.6624 109.377 35.5822H110.164V35.5822ZM108.509 33.5876C108.26 33.5876 108.051 33.672 107.88 33.8407C107.709 34.0095 107.601 34.2309 107.556 34.5032H109.543C109.5 34.2336 109.39 34.0137 109.213 33.8434C109.037 33.6732 108.802 33.5876 108.509 33.5876V33.5876ZM112.876 36.6597H112.133V31.4326H112.876V36.6597ZM117.578 34.7907C117.578 34.6127 117.549 34.4505 117.491 34.3057C117.433 34.1588 117.357 34.0328 117.262 33.9239C117.168 33.8159 117.058 33.733 116.931 33.6747C116.804 33.6166 116.676 33.5876 116.544 33.5876C116.412 33.5876 116.283 33.6166 116.157 33.6747C116.03 33.733 115.92 33.8159 115.826 33.9239C115.731 34.0328 115.655 34.1603 115.597 34.3069C115.539 34.4547 115.51 34.6154 115.51 34.7907C115.51 34.9694 115.539 35.1313 115.597 35.2779C115.655 35.423 115.731 35.5502 115.826 35.6582C115.92 35.7659 116.03 35.8506 116.157 35.9083C116.283 35.9667 116.412 35.9957 116.544 35.9957C116.676 35.9957 116.804 35.9667 116.931 35.9083C117.058 35.8506 117.168 35.7659 117.262 35.6582C117.357 35.5502 117.433 35.423 117.491 35.2779C117.549 35.1313 117.578 34.9694 117.578 34.7907ZM118.321 34.7907C118.321 35.0729 118.275 35.3305 118.186 35.5642C118.095 35.7964 117.969 35.9987 117.806 36.1671C117.642 36.3359 117.454 36.4673 117.239 36.56C117.024 36.654 116.792 36.6998 116.544 36.6998C116.296 36.6998 116.064 36.654 115.849 36.56C115.634 36.4673 115.445 36.3359 115.281 36.1671C115.118 35.9987 114.993 35.7979 114.902 35.5657C114.812 35.3329 114.767 35.0744 114.767 34.7907C114.767 34.5101 114.812 34.2543 114.902 34.0218C114.993 33.7896 115.118 33.5891 115.281 33.4203C115.445 33.2516 115.634 33.1184 115.849 33.0245C116.064 32.9305 116.296 32.8835 116.544 32.8835C116.792 32.8835 117.024 32.9305 117.239 33.0245C117.454 33.1184 117.642 33.2516 117.806 33.4203C117.969 33.5891 118.095 33.7896 118.186 34.0218C118.275 34.2543 118.321 34.5101 118.321 34.7907ZM121.948 32.8835C122.196 32.8835 122.428 32.9305 122.643 33.0245C122.859 33.1184 123.048 33.2516 123.211 33.4203C123.374 33.5891 123.5 33.7896 123.593 34.0218C123.684 34.2543 123.73 34.5101 123.73 34.7907C123.73 35.0729 123.684 35.3305 123.593 35.5642C123.5 35.7964 123.374 35.9987 123.211 36.1671C123.048 36.3359 122.859 36.4673 122.643 36.56C122.428 36.654 122.196 36.6998 121.948 36.6998C121.772 36.6998 121.619 36.6803 121.492 36.639C121.366 36.5986 121.259 36.5501 121.174 36.4936C121.075 36.4314 120.987 36.3622 120.914 36.2859V37.9888H120.172V32.9239H120.709L120.874 33.3C120.947 33.2225 121.032 33.1519 121.129 33.0897C121.218 33.0412 121.329 32.9942 121.465 32.9497C121.598 32.9057 121.761 32.8835 121.948 32.8835V32.8835ZM121.908 35.9957C122.051 35.9957 122.187 35.9667 122.316 35.9083C122.446 35.8506 122.561 35.7659 122.66 35.6582C122.759 35.5502 122.837 35.423 122.895 35.2779C122.953 35.1313 122.982 34.9694 122.982 34.7907C122.982 34.6127 122.953 34.4505 122.895 34.3057C122.837 34.1588 122.759 34.0328 122.66 33.9239C122.561 33.8159 122.446 33.733 122.316 33.6747C122.187 33.6166 122.051 33.5876 121.908 33.5876C121.766 33.5876 121.629 33.6166 121.499 33.6747C121.368 33.733 121.253 33.8159 121.156 33.9239C121.056 34.0328 120.979 34.1603 120.921 34.3069C120.863 34.4547 120.834 34.6154 120.834 34.7907C120.834 34.9694 120.863 35.1313 120.921 35.2779C120.979 35.423 121.056 35.5502 121.156 35.6582C121.253 35.7659 121.368 35.8506 121.499 35.9083C121.629 35.9667 121.766 35.9957 121.908 35.9957ZM129.34 32.8835C129.518 32.8835 129.684 32.9167 129.837 32.9859C129.991 33.055 130.125 33.1561 130.241 33.2902C130.357 33.4245 130.449 33.5864 130.518 33.777C130.587 33.9667 130.621 34.1809 130.621 34.4188V36.6597H129.877V34.4188C129.877 34.1699 129.807 33.9694 129.666 33.8171C129.524 33.6639 129.361 33.5876 129.175 33.5876C128.986 33.5876 128.822 33.6639 128.682 33.8171C128.542 33.9694 128.472 34.1699 128.472 34.4188V36.6597H127.725V34.4188C127.725 34.1699 127.654 33.9694 127.515 33.8171C127.375 33.6639 127.211 33.5876 127.022 33.5876C126.833 33.5876 126.669 33.6639 126.53 33.8171C126.389 33.9694 126.319 34.1699 126.319 34.4188V36.6597H125.576V32.9239H126.113L126.279 33.3C126.347 33.2225 126.426 33.1519 126.517 33.0897C126.596 33.0412 126.691 32.9942 126.804 32.9497C126.917 32.9057 127.045 32.8835 127.187 32.8835C127.365 32.8835 127.518 32.9126 127.644 32.9733C127.771 33.0343 127.878 33.102 127.967 33.1741C128.067 33.2638 128.152 33.3608 128.221 33.4658C128.221 33.4658 128.246 33.4368 128.294 33.3775C128.34 33.3207 128.41 33.2543 128.504 33.1783C128.599 33.1035 128.715 33.0343 128.851 32.9733C128.989 32.9126 129.152 32.8835 129.34 32.8835V32.8835ZM135.904 35.5822C135.842 35.7357 135.765 35.8808 135.67 36.0151C135.576 36.1507 135.463 36.2695 135.331 36.3718C135.199 36.4744 135.047 36.5543 134.873 36.6127C134.7 36.6704 134.505 36.6998 134.289 36.6998C134.042 36.6998 133.81 36.654 133.594 36.56C133.379 36.4673 133.19 36.3359 133.029 36.1671C132.867 35.9987 132.74 35.7979 132.649 35.5657C132.557 35.3329 132.512 35.0744 132.512 34.7907C132.512 34.5101 132.557 34.2543 132.649 34.0218C132.74 33.7896 132.865 33.5891 133.02 33.4203C133.178 33.2516 133.361 33.1184 133.574 33.0245C133.787 32.9305 134.012 32.8835 134.249 32.8835C134.486 32.8835 134.71 32.9305 134.923 33.0245C135.136 33.1184 135.32 33.2516 135.477 33.4203C135.632 33.5891 135.757 33.7896 135.848 34.0218C135.94 34.2543 135.986 34.5101 135.986 34.7907C135.986 34.835 135.983 34.8769 135.977 34.9197C135.972 34.961 135.966 34.9972 135.961 35.0259C135.955 35.0648 135.95 35.0965 135.944 35.1241H133.296C133.305 35.2405 133.34 35.3512 133.397 35.4562C133.453 35.5615 133.523 35.654 133.609 35.7345C133.693 35.8129 133.795 35.8769 133.914 35.9239C134.032 35.9709 134.158 35.9957 134.289 35.9957C134.515 35.9957 134.695 35.946 134.828 35.8491C134.961 35.7521 135.058 35.6624 135.117 35.5822H135.904V35.5822ZM134.249 33.5876C134 33.5876 133.791 33.672 133.62 33.8407C133.449 34.0095 133.342 34.2309 133.296 34.5032H135.283C135.24 34.2336 135.13 34.0137 134.953 33.8434C134.777 33.6732 134.542 33.5876 134.249 33.5876V33.5876ZM139.609 32.8835C139.814 32.8835 140.007 32.9239 140.189 33.0038C140.371 33.0855 140.528 33.1962 140.664 33.3371C140.799 33.4769 140.905 33.6471 140.983 33.8449C141.061 34.0442 141.099 34.2638 141.099 34.5032V36.6597H140.356V34.5032C140.356 34.3829 140.333 34.2665 140.286 34.1546C140.239 34.0442 140.175 33.9473 140.094 33.8641C140.013 33.78 139.92 33.7133 139.816 33.6624C139.711 33.6124 139.6 33.5876 139.485 33.5876C139.358 33.5876 139.24 33.6124 139.129 33.6624C139.019 33.7133 138.922 33.78 138.84 33.8641C138.758 33.9473 138.694 34.0442 138.647 34.1534C138.6 34.2623 138.575 34.3799 138.575 34.5032V36.6597H137.832V32.9239H138.37L138.535 33.3C138.608 33.2225 138.692 33.1519 138.79 33.0897C138.879 33.0412 138.99 32.9942 139.125 32.9497C139.259 32.9057 139.422 32.8835 139.609 32.8835V32.8835ZM144.188 35.4161C144.188 35.5807 144.243 35.7174 144.353 35.8284C144.463 35.9388 144.6 35.9957 144.765 35.9957C144.792 35.9957 144.82 35.9945 144.852 35.9915C144.882 35.9888 144.911 35.9846 144.939 35.9789C144.965 35.9736 144.991 35.9652 145.015 35.9541V36.6193C144.983 36.6348 144.945 36.6486 144.898 36.6597C144.815 36.686 144.716 36.6998 144.603 36.6998C144.439 36.6998 144.285 36.6692 144.145 36.6085C144.003 36.5475 143.88 36.4619 143.776 36.3512C143.671 36.2405 143.589 36.1076 143.532 35.9502C143.473 35.7937 143.444 35.6154 143.444 35.4161V33.6292H142.782V32.9239H143.072C143.216 32.9239 143.334 32.8767 143.428 32.7839C143.522 32.6896 143.569 32.5723 143.569 32.4284V31.9305H144.188V32.9239H145.015V33.6292H144.188V35.4161V35.4161ZM149.341 34.0454C149.341 34.3264 149.391 34.5864 149.487 34.8243C149.584 35.0621 149.711 35.268 149.869 35.4424C150.026 35.6169 150.207 35.7521 150.41 35.8491C150.614 35.946 150.823 35.9957 151.038 35.9957C151.237 35.9957 151.417 35.9667 151.577 35.9083C151.737 35.8506 151.878 35.7689 151.999 35.6663C152.12 35.5642 152.221 35.4451 152.3 35.3096C152.379 35.1755 152.44 35.0301 152.484 34.8769H153.312C153.249 35.1256 153.153 35.3608 153.02 35.5822C152.89 35.8036 152.726 35.9972 152.53 36.1633C152.335 36.329 152.112 36.4604 151.861 36.5558C151.612 36.6528 151.337 36.6998 151.038 36.6998C150.707 36.6998 150.392 36.6318 150.091 36.4978C149.79 36.3622 149.527 36.174 149.301 35.9347C149.075 35.6941 148.895 35.4134 148.76 35.0912C148.626 34.7701 148.558 34.4218 148.558 34.0454C148.558 33.6762 148.626 33.3291 148.76 33.0038C148.895 32.6804 149.075 32.3982 149.301 32.1573C149.527 31.9168 149.79 31.7301 150.091 31.5942C150.392 31.459 150.707 31.391 151.038 31.391C151.324 31.391 151.591 31.4395 151.839 31.535C152.089 31.6319 152.308 31.7618 152.498 31.929C152.688 32.0951 152.85 32.2887 152.982 32.5101C153.116 32.7315 153.212 32.9667 153.272 33.2154H152.443C152.4 33.0607 152.338 32.9153 152.258 32.78C152.177 32.6427 152.077 32.5239 151.959 32.423C151.84 32.3219 151.704 32.2417 151.551 32.1837C151.398 32.1256 151.227 32.0963 151.038 32.0963C150.823 32.0963 150.614 32.1448 150.41 32.2402C150.207 32.3357 150.026 32.4715 149.869 32.6457C149.711 32.8198 149.584 33.026 149.487 33.2653C149.391 33.5044 149.341 33.7644 149.341 34.0454V34.0454ZM158.263 35.5822C158.202 35.7357 158.124 35.8808 158.029 36.0151C157.935 36.1507 157.823 36.2695 157.69 36.3718C157.558 36.4744 157.406 36.5543 157.232 36.6127C157.059 36.6704 156.864 36.6998 156.648 36.6998C156.401 36.6998 156.17 36.654 155.953 36.56C155.738 36.4673 155.549 36.3359 155.388 36.1671C155.227 35.9987 155.1 35.7979 155.009 35.5657C154.916 35.3329 154.871 35.0744 154.871 34.7907C154.871 34.5101 154.916 34.2543 155.009 34.0218C155.1 33.7896 155.224 33.5891 155.38 33.4203C155.537 33.2516 155.72 33.1184 155.934 33.0245C156.146 32.9305 156.371 32.8835 156.608 32.8835C156.845 32.8835 157.07 32.9305 157.282 33.0245C157.496 33.1184 157.679 33.2516 157.836 33.4203C157.992 33.5891 158.116 33.7896 158.207 34.0218C158.299 34.2543 158.345 34.5101 158.345 34.7907C158.345 34.835 158.342 34.8769 158.337 34.9197C158.331 34.961 158.326 34.9972 158.32 35.0259C158.315 35.0648 158.309 35.0965 158.304 35.1241H155.655C155.665 35.2405 155.699 35.3512 155.756 35.4562C155.813 35.5615 155.883 35.654 155.968 35.7345C156.052 35.8129 156.154 35.8769 156.273 35.9239C156.391 35.9709 156.517 35.9957 156.648 35.9957C156.874 35.9957 157.055 35.946 157.187 35.8491C157.321 35.7521 157.417 35.6624 157.477 35.5822H158.263V35.5822ZM156.608 33.5876C156.36 33.5876 156.15 33.672 155.98 33.8407C155.808 34.0095 155.701 34.2309 155.655 34.5032H157.642C157.599 34.2336 157.489 34.0137 157.312 33.8434C157.136 33.6732 156.902 33.5876 156.608 33.5876V33.5876ZM161.968 32.8835C162.174 32.8835 162.367 32.9239 162.549 33.0038C162.731 33.0855 162.888 33.1962 163.023 33.3371C163.158 33.4769 163.264 33.6471 163.343 33.8449C163.42 34.0442 163.459 34.2638 163.459 34.5032V36.6597H162.715V34.5032C162.715 34.3829 162.692 34.2665 162.645 34.1546C162.598 34.0442 162.535 33.9473 162.454 33.8641C162.372 33.78 162.28 33.7133 162.175 33.6624C162.07 33.6124 161.96 33.5876 161.844 33.5876C161.718 33.5876 161.599 33.6124 161.489 33.6624C161.378 33.7133 161.282 33.78 161.199 33.8641C161.118 33.9473 161.053 34.0442 161.006 34.1534C160.959 34.2623 160.934 34.3799 160.934 34.5032V36.6597H160.191V32.9239H160.729L160.895 33.3C160.968 33.2225 161.052 33.1519 161.149 33.0897C161.238 33.0412 161.349 32.9942 161.485 32.9497C161.618 32.9057 161.781 32.8835 161.968 32.8835ZM166.547 35.4161C166.547 35.5807 166.602 35.7174 166.713 35.8284C166.823 35.9388 166.959 35.9957 167.125 35.9957C167.151 35.9957 167.18 35.9945 167.212 35.9915C167.242 35.9888 167.271 35.9846 167.298 35.9789C167.325 35.9736 167.351 35.9652 167.374 35.9541V36.6193C167.342 36.6348 167.304 36.6486 167.257 36.6597C167.174 36.686 167.075 36.6998 166.962 36.6998C166.798 36.6998 166.645 36.6692 166.504 36.6085C166.362 36.5475 166.239 36.4619 166.135 36.3512C166.03 36.2405 165.949 36.1076 165.891 35.9502C165.833 35.7937 165.804 35.6154 165.804 35.4161V33.6292H165.141V32.9239H165.432C165.575 32.9239 165.694 32.8767 165.788 32.7839C165.881 32.6896 165.928 32.5723 165.928 32.4284V31.9305H166.547V32.9239H167.374V33.6292H166.547V35.4161V35.4161ZM172.452 35.5822C172.39 35.7357 172.313 35.8808 172.218 36.0151C172.124 36.1507 172.011 36.2695 171.878 36.3718C171.746 36.4744 171.594 36.5543 171.421 36.6127C171.247 36.6704 171.053 36.6998 170.836 36.6998C170.589 36.6998 170.358 36.654 170.142 36.56C169.926 36.4673 169.737 36.3359 169.576 36.1671C169.415 35.9987 169.288 35.7979 169.197 35.5657C169.105 35.3329 169.059 35.0744 169.059 34.7907C169.059 34.5101 169.105 34.2543 169.197 34.0218C169.288 33.7896 169.412 33.5891 169.568 33.4203C169.725 33.2516 169.909 33.1184 170.122 33.0245C170.334 32.9305 170.559 32.8835 170.796 32.8835C171.034 32.8835 171.258 32.9305 171.47 33.0245C171.684 33.1184 171.867 33.2516 172.024 33.4203C172.18 33.5891 172.304 33.7896 172.395 34.0218C172.488 34.2543 172.533 34.5101 172.533 34.7907C172.533 34.835 172.531 34.8769 172.525 34.9197C172.519 34.961 172.514 34.9972 172.508 35.0259C172.503 35.0648 172.497 35.0965 172.492 35.1241H169.844C169.853 35.2405 169.888 35.3512 169.944 35.4562C170.001 35.5615 170.071 35.654 170.156 35.7345C170.241 35.8129 170.343 35.8769 170.462 35.9239C170.58 35.9709 170.705 35.9957 170.836 35.9957C171.062 35.9957 171.243 35.946 171.375 35.8491C171.509 35.7521 171.605 35.6624 171.665 35.5822H172.452V35.5822ZM170.796 33.5876C170.548 33.5876 170.339 33.672 170.168 33.8407C169.997 34.0095 169.889 34.2309 169.844 34.5032H171.83C171.787 34.2336 171.677 34.0137 171.501 33.8434C171.324 33.6732 171.09 33.5876 170.796 33.5876V33.5876ZM176.032 32.8835C176.075 32.8835 176.111 32.8847 176.139 32.8904C176.168 32.8961 176.194 32.9018 176.217 32.9069C176.239 32.9126 176.261 32.9182 176.282 32.9239V33.6732C176.261 33.6678 176.235 33.6624 176.206 33.6567C176.179 33.6513 176.151 33.6456 176.121 33.6388C176.092 33.6319 176.061 33.6292 176.032 33.6292C175.906 33.6292 175.787 33.654 175.677 33.7037C175.567 33.7537 175.47 33.8201 175.387 33.9042C175.306 33.9873 175.241 34.0855 175.194 34.1962C175.147 34.3069 175.123 34.423 175.123 34.5448V36.6597H174.38V32.9239H174.917L175.083 33.3C175.15 33.2225 175.23 33.1519 175.321 33.0897C175.4 33.0412 175.498 32.9942 175.616 32.9497C175.735 32.9057 175.873 32.8835 176.032 32.8835V32.8835Z" fill="white"/>
<path d="M32.9685 24.5581L18.6897 21.1919C18.0694 21.0883 17.6558 20.5698 17.4488 20.0507L13.3015 5.48506L3.69633 15.4861L8.03953 30.7378L23.4465 34.4726L32.9685 24.5581V24.5581ZM13.4518 0.600939C13.5073 0.579096 13.5645 0.560545 13.6233 0.545883C13.9331 0.476764 14.243 0.488134 14.526 0.564734L25.092 3.16673L27.8929 0.234098C27.9373 0.144632 28.0202 0.0940648 28.1168 0.0650407C28.1446 0.0497806 28.1732 0.036615 28.203 0.0267409C28.3479 -0.0217324 28.5155 -0.00228322 28.6634 0.064143L35.1311 1.6865C35.3381 1.79003 35.545 1.89416 35.6482 2.10151L37.4307 8.36054C37.5455 8.51015 37.6129 8.71302 37.6129 8.9494C37.436 9.30397 37.2595 9.50714 37.0182 9.55861L34.6996 11.9859L37.923 23.0599C38.0927 23.5704 37.9841 24.0808 37.7116 24.4198C37.5648 24.6727 37.3668 24.8746 37.1283 25.0147L25.2045 37.4813C24.8943 37.7928 24.3769 38.0004 23.9636 38.0004C23.8601 38.0004 23.6534 38.0004 23.55 38.0004L6.28155 33.7464C5.76445 33.6426 5.24764 33.2276 5.14416 32.6049L0.180678 15.4861C-0.0259843 14.8637 0.180678 14.2411 0.594302 13.8263L12.7957 1.06473C12.9797 0.834328 13.2043 0.685617 13.4518 0.600939V0.600939ZM16.4981 4.52996L20.3442 18.0794L33.8634 21.17L31.928 14.4481H31.9256L25.3079 12.7878C25.1013 12.6842 24.8943 12.5804 24.7908 12.373L23.0179 6.14723L16.4981 4.52996V4.52996ZM35.6303 9.29141L30.0645 7.80819C29.8575 7.70436 29.6508 7.60053 29.6508 7.39317L28.1141 1.99589L24.3772 5.83634L26.032 11.6465L31.9256 13.0989L35.6303 9.29141ZM29.3821 1.66735L30.7882 6.56314L35.9044 7.82554L34.5108 2.93154L29.3821 1.66735Z" fill="white"/>
</svg>
